<?xml version="1.0" standalone="no"?>
<svg xmlns:xlink="http://www.w3.org/1999/xlink" id="wave" style="transform:rotate(0deg); transition: 0.3s" viewBox="0 0 1440 190" version="1.1" xmlns="http://www.w3.org/2000/svg"><defs><linearGradient id="sw-gradient-0" x1="0" x2="0" y1="1" y2="0"><stop stop-color="rgba(57.275, 52.897, 51.491, 1)" offset="0%"/><stop stop-color="rgba(96.9, 115.345, 255, 1)" offset="100%"/></linearGradient></defs><path style="transform:translate(0, 0px); opacity:1" fill="url(#sw-gradient-0)" d="M0,95L40,85.5C80,76,160,57,240,69.7C320,82,400,127,480,129.8C560,133,640,95,720,66.5C800,38,880,19,960,28.5C1040,38,1120,76,1200,79.2C1280,82,1360,51,1440,38C1520,25,1600,32,1680,34.8C1760,38,1840,38,1920,38C2000,38,2080,38,2160,47.5C2240,57,2320,76,2400,82.3C2480,89,2560,82,2640,72.8C2720,63,2800,51,2880,60.2C2960,70,3040,101,3120,120.3C3200,139,3280,146,3360,145.7C3440,146,3520,139,3600,139.3C3680,139,3760,146,3840,139.3C3920,133,4000,114,4080,107.7C4160,101,4240,108,4320,98.2C4400,89,4480,63,4560,47.5C4640,32,4720,25,4800,28.5C4880,32,4960,44,5040,44.3C5120,44,5200,32,5280,28.5C5360,25,5440,32,5520,44.3C5600,57,5680,76,5720,85.5L5760,95L5760,190L5720,190C5680,190,5600,190,5520,190C5440,190,5360,190,5280,190C5200,190,5120,190,5040,190C4960,190,4880,190,4800,190C4720,190,4640,190,4560,190C4480,190,4400,190,4320,190C4240,190,4160,190,4080,190C4000,190,3920,190,3840,190C3760,190,3680,190,3600,190C3520,190,3440,190,3360,190C3280,190,3200,190,3120,190C3040,190,2960,190,2880,190C2800,190,2720,190,2640,190C2560,190,2480,190,2400,190C2320,190,2240,190,2160,190C2080,190,2000,190,1920,190C1840,190,1760,190,1680,190C1600,190,1520,190,1440,190C1360,190,1280,190,1200,190C1120,190,1040,190,960,190C880,190,800,190,720,190C640,190,560,190,480,190C400,190,320,190,240,190C160,190,80,190,40,190L0,190Z"/></svg>